<?xml version="1.0" encoding="UTF-8" standalone="no"?><!DOCTYPE svg PUBLIC "-//W3C//DTD SVG 1.1//EN" "http://www.w3.org/Graphics/SVG/1.1/DTD/svg11.dtd"><svg width="100%" height="100%" viewBox="0 0 5417 2084" version="1.1" xmlns="http://www.w3.org/2000/svg" xmlns:xlink="http://www.w3.org/1999/xlink" xml:space="preserve" xmlns:serif="http://www.serif.com/" style="fill-rule:evenodd;clip-rule:evenodd;stroke-linecap:round;stroke-linejoin:round;stroke-miterlimit:5;"><g><clipPath id="_clip1"><path d="M608.11,121.227c4.38,-5.972 9.392,-13.21 13.347,-17.119c53.321,-52.692 129.747,-55.833 207.058,-36.61c80.361,19.981 192.753,170.392 271.773,156.556c184.053,-32.229 357.391,116.499 456.567,271.06l160.629,0l0.211,0.219c66.369,3.881 119.164,58.993 119.049,126.314c-0.224,131.652 2.518,207.95 -0.062,251.269c0.041,1.329 0.062,2.671 0.062,4.017l0,1053.93c0,71.257 -57.852,129.109 -129.109,129.109l-1474.66,0c-71.257,0 -129.108,-57.852 -129.108,-129.109l0,-1310.93c0,0.719 0.006,1.438 0.017,2.148c1.153,-70.271 58.554,-126.96 129.091,-126.96l409.832,0c3.63,-4.346 6.619,-8.215 8.68,-11.116c-42.673,-29.956 -85.7,-68.5 -102.466,-106.04l0,0l0,0l0,0c-74.884,-14.649 -150.897,-36.388 -197.401,-75.93c-57.199,-48.636 -68.765,-160.487 -34.466,-195.061c81.71,-82.365 148.887,-3.303 253.996,10.141c12.028,1.539 24.418,2.762 36.956,4.119Z"/></clipPath><g clip-path="url(#_clip1)"><rect x="-487.458" y="-357.298" width="3124.39" height="2968.18" style="fill-opacity:0.5;"/></g><g id="Ebene1"><path d="M1775.21,478.448l-232.769,0" style="fill:none;"/><path d="M87.204,752.807l1670.47,95.282l-2.316,-116.931l-19.615,-216.664l-34.922,-36.046l-1192.1,0l129.773,0l-422.18,0c-71.257,0 -129.109,57.851 -129.109,129.108l0,145.251Z" style="fill:#33281d;"/><circle cx="1693.55" cy="604.981" r="126.533" style="fill:#33281d;"/><path d="M1693.55,478.448c69.835,0 126.651,56.697 126.532,126.533c-0.664,389.849 24.691,294.311 -139.195,294.311c-69.835,0 -113.87,-224.476 -113.87,-294.311c0,-69.836 56.697,-126.533 126.533,-126.533Z" style="fill:#33281d;"/><path d="M87.204,881.326l0,1032.87c0,71.257 57.852,129.108 129.109,129.108l1474.66,0c71.257,0 129.108,-57.851 129.108,-129.108l0,-1053.93c0,-71.257 -57.851,-129.109 -129.108,-129.109l-550.373,0.457" style="fill:#66503a;"/><path d="M948.764,731.767l-732.451,0.6c-71.257,0 -129.109,-57.851 -129.109,-129.108l0,286.704l194.038,33.966l950.954,-191.562l-283.432,-0.6Z" style="fill:#66503a;"/><path d="M224.019,603.259l652.531,0" style="fill:none;stroke:#000;stroke-opacity:0.2;stroke-width:20.83px;"/><path d="M1729,619.075l46.209,0c8.729,0 15.816,-7.087 15.816,-15.816c0,-8.73 -7.087,-15.817 -15.816,-15.817l-35.839,0" style="fill-opacity:0.2;"/><path d="M1739.37,587.442l-542.754,0c-8.73,0 -15.817,7.087 -15.817,15.817c0,8.729 7.087,15.816 15.817,15.816l532.384,0" style="fill-opacity:0.2;"/><path d="M224.019,1786.49l0,-968.1" style="fill:none;stroke:#33281d;stroke-width:20.83px;"/><path d="M224.019,1944.43l0,-73.084" style="fill:none;stroke:#33281d;stroke-width:20.83px;"/><g><path d="M661.899,400.474l152.924,-179.663l773.9,353.324l14.352,28.111l-417.716,1.013l-376.833,-110.043l-146.627,-92.742Z" style="fill:#0064ff;"/><path d="M1141.08,414.632c93.7,113.056 56.539,193.503 29.528,255.128c-22.87,52.177 -112.887,129.174 -112.887,129.174c55.34,38.287 -231.574,98.169 -120.592,-44.167c18.215,-23.361 21.861,-71.788 -0.014,-91.764c-45.548,-41.593 -90.701,-81.011 -102.856,-145.262" style="fill:#0064ff;"/><path d="M1058.21,798.512c46.173,30.971 98.682,70.303 142.944,116.207c-46.95,-2.967 -70.126,15.157 -59.282,63.462c-44.654,-14.855 -65.272,3.625 -63.354,53.358c-27.3,-40.566 -52.098,-37.513 -74.275,11.253c-26.344,-48.9 -53.729,-44.781 -82.071,8.181c-19.887,-61.78 -49.623,-48.888 -83.505,2.797c-21.552,-83.332 -38.52,-189.454 98.45,-298.989c29.065,32.222 67.516,49.787 121.093,43.731Z" style="fill:#fe6d09;"/><path d="M381.944,603.259c37.529,-37.679 108.723,-85.089 185.69,-80.847c21.915,1.207 60.496,-44.711 68.731,-57.333l153.195,65.972c-25.079,9.01 -47.426,24.519 -65.435,42.661c-7.27,7.324 -17.18,17.843 -27.651,29.547l0,0l-314.53,0Z" style="fill:#0064ff;"/><path d="M696.474,603.259l-314.53,0c37.529,-37.679 108.723,-85.089 185.69,-80.847c35.233,35.948 79.515,61.34 128.84,80.847Z" style="fill:#fe6d09;"/><path d="M381.944,603.259c37.529,-37.679 108.723,-85.089 185.69,-80.847c21.915,1.207 60.496,-44.711 68.731,-57.333l153.195,65.972c-25.079,9.01 -47.426,24.519 -65.435,42.661c-7.27,7.324 -17.18,17.843 -27.651,29.547l0,0l-314.53,0Z" style="fill-opacity:0.2;"/><path d="M1185.36,603.259l-349.761,-86.377c1.839,9.721 3.926,20.02 7.167,28.704c-45.433,-14.341 -93.778,-14.056 -137.655,-35.877c-53.767,-26.739 -151.157,-91.956 -174.796,-153.33c58.679,11.58 116.067,18.752 159.004,26.667" style="fill:#0064ff;"/><path d="M789.56,289.454c-30.937,-160.522 -116.339,-171.255 -201.507,-180.407c4.976,-6.29 11.71,-16.636 16.738,-21.605c53.32,-52.693 129.746,-55.834 207.057,-36.611c80.361,19.981 192.753,170.393 271.773,156.556c234.493,-41.061 451.593,211.607 520.108,395.872" style="fill:#0064ff;"/><path d="M902.206,295.234c15.026,12.9 16.701,35.634 3.738,50.735c-12.964,15.101 -35.689,16.888 -50.716,3.988c-15.026,-12.9 -16.701,-35.633 -3.738,-50.734c12.964,-15.101 35.689,-16.889 50.716,-3.989Z"/><circle cx="869.227" cy="306.056" r="9.49" style="fill:#fff;"/><path d="M1195.44,603.259c10.519,-56.623 12.06,-108.489 -54.358,-188.627c46.31,28.038 85.619,70.069 123.531,188.627" style="fill-opacity:0.2;"/><path d="M798.119,288.418c-35.28,-183.056 -150.312,-176.04 -243.632,-187.977c-105.108,-13.444 -172.286,-92.506 -253.996,-10.141c-34.299,34.574 -22.732,146.425 34.466,195.061c82.512,70.161 257.926,84.271 355.157,102.195" style="fill:#fe6d09;"/><path d="M532.358,361.291l157.756,26.265c0,0 -29.201,5.791 -46.576,2.898c-26.293,-4.377 -111.18,-29.163 -111.18,-29.163Z" style="fill-opacity:0.2;"/><path d="M381.755,127c10.447,8.969 11.64,24.74 2.663,35.198c-8.978,10.458 -24.749,11.667 -35.196,2.699c-10.447,-8.968 -11.64,-24.74 -2.662,-35.198c8.977,-10.458 24.748,-11.667 35.195,-2.699Z" style="fill-opacity:0.2;"/><path d="M407.443,186.88c10.447,8.969 11.64,24.74 2.663,35.198c-8.978,10.458 -24.749,11.667 -35.196,2.699c-10.447,-8.968 -11.64,-24.74 -2.662,-35.198c8.977,-10.458 24.748,-11.667 35.195,-2.699Z" style="fill-opacity:0.2;"/></g></g><path d="M2388.46,873.987l-144.822,0l0,168.03l-222.802,0l0,-696.257l350.914,0c159.674,0 239.512,85.717 239.512,257.151c0,37.753 -3.714,73.03 -11.14,105.831c-7.427,32.802 -19.96,61.425 -37.598,85.872c-17.639,24.446 -40.538,43.787 -68.697,58.021c-28.16,14.235 -63.282,21.352 -105.367,21.352Zm-93.763,-349.985l-51.059,0l0,171.743l51.059,0c27.232,0 46.881,-2.785 58.95,-8.355c12.068,-5.57 18.103,-18.567 18.103,-38.99l0,-77.981c0,-19.804 -6.035,-32.492 -18.103,-38.062c-12.069,-5.57 -31.718,-8.355 -58.95,-8.355Z" style="fill-opacity:0.5;fill-rule:nonzero;"/><path d="M2678.1,317.91l222.803,-16.71l0,581.142c11.759,2.476 22.28,4.332 31.563,5.57c9.284,1.238 17.02,2.166 23.209,2.785l-10.212,163.388c-94.691,0 -157.509,-5.57 -188.453,-16.71c-25.994,-9.283 -45.644,-21.352 -58.95,-36.205c-13.306,-14.854 -19.96,-36.205 -19.96,-64.056l0,-619.204Z" style="fill-opacity:0.5;fill-rule:nonzero;"/><path d="M3286.16,468.302c178.241,0 267.362,61.27 267.362,183.811l0,389.904l-111.401,0l-63.127,-63.127c-11.14,12.378 -24.292,23.518 -39.455,33.42c-15.163,9.902 -31.409,18.257 -48.738,25.065c-17.329,6.808 -34.967,12.069 -52.915,15.782c-17.948,3.713 -35.277,5.57 -51.987,5.57c-31.564,0 -59.878,-3.249 -84.944,-9.747c-25.065,-6.499 -46.262,-16.865 -63.591,-31.1c-17.329,-14.234 -30.635,-33.111 -39.919,-56.629c-9.283,-23.518 -13.925,-52.296 -13.925,-86.336c0,-133.681 100.88,-200.521 302.64,-200.521l44.56,0l0,-39.919c-11.759,-0.619 -22.435,-1.238 -32.028,-1.857c-9.593,-0.619 -18.412,-0.928 -26.458,-0.928c-83.55,0 -155.652,10.212 -216.303,30.635l-26.922,-159.675c74.267,-22.899 159.984,-34.348 257.151,-34.348Zm-77.981,382.477l0,45.488l46.417,0c32.182,0 53.225,-3.713 63.127,-11.14c8.665,-8.045 12.997,-17.638 12.997,-28.778l0,-52.916l-45.489,0c-26.612,0 -46.107,2.785 -58.485,8.355c-12.378,5.57 -18.567,18.567 -18.567,38.991Z" style="fill-opacity:0.5;fill-rule:nonzero;"/><path d="M3676.07,628.905l-55.7,0l0,-143.893l55.7,0l0,-89.121l222.802,-55.701l0,144.822l77.053,0l0,143.893l-77.053,0l0,253.437c9.284,1.857 19.495,3.559 30.636,5.106c11.14,1.547 22.899,2.63 35.277,3.249l-10.212,163.388c-101.499,0 -167.721,-5.57 -198.665,-16.71c-25.994,-9.283 -45.799,-21.197 -59.414,-35.741c-13.616,-14.544 -20.424,-36.051 -20.424,-64.52l0,-308.209Z" style="fill-opacity:0.5;fill-rule:nonzero;"/><path d="M4245.14,984.46l-116.971,0l-124.398,-499.448l222.802,0l61.271,362.053l11.14,0l61.27,-362.053l222.802,0l-139.251,557.005c-9.902,36.515 -21.197,66.531 -33.884,90.049c-12.688,23.518 -27.387,42.24 -44.097,56.165c-16.71,13.925 -36.05,23.673 -58.021,29.243c-21.971,5.57 -47.5,8.355 -76.588,8.355l-216.304,0l0,-144.822l104.903,-20.423c53.843,-12.378 88.811,-25.684 104.902,-39.919c4.333,-3.713 8.355,-8.046 12.069,-12.997c3.713,-4.951 7.117,-10.521 10.211,-16.71l-1.856,-6.498Z" style="fill-opacity:0.5;fill-rule:nonzero;"/><path d="M2834.09,1647.39l-144.821,0l0,168.03l-222.802,0l0,-696.256l350.913,0c159.675,0 239.513,85.717 239.513,257.15c0,37.753 -3.714,73.03 -11.141,105.831c-7.426,32.802 -19.959,61.426 -37.597,85.872c-17.639,24.446 -40.538,43.787 -68.698,58.021c-28.159,14.235 -63.282,21.352 -105.367,21.352Zm-93.762,-349.985l-51.059,0l0,171.744l51.059,0c27.231,0 46.881,-2.785 58.95,-8.356c12.068,-5.57 18.102,-18.566 18.102,-38.99l0,-77.981c0,-19.804 -6.034,-32.492 -18.102,-38.062c-12.069,-5.57 -31.719,-8.355 -58.95,-8.355Z" style="fill-opacity:0.5;fill-rule:nonzero;"/><path d="M3112.59,1258.42l222.802,0l0,411.255l34.349,0c27.231,0 46.881,-2.785 58.95,-8.355c12.068,-5.57 18.102,-18.566 18.102,-38.99l0,-363.91l222.802,0l0,557.005l-111.401,0l-64.984,-63.127c-44.56,53.225 -107.997,79.837 -190.31,79.837c-66.222,0 -114.495,-14.08 -144.821,-42.239c-30.326,-28.16 -45.489,-75.351 -45.489,-141.572l0,-389.904Z" style="fill-opacity:0.5;fill-rule:nonzero;"/><path d="M3781,1815.42l0,-557.005l111.401,0l61.271,62.199c44.56,-40.847 99.642,-67.15 165.245,-78.909l12.997,210.733c-8.665,0 -19.186,1.238 -31.564,3.714c-12.378,2.475 -24.911,5.57 -37.598,9.283c-12.687,3.714 -24.291,8.201 -34.813,13.461c-10.521,5.261 -18.567,11.295 -24.137,18.103l0,318.421l-222.802,0Z" style="fill-opacity:0.5;fill-rule:nonzero;"/><path d="M4252.6,1280.7c47.655,-25.993 112.948,-38.99 195.88,-38.99c83.551,0 159.985,11.449 229.301,34.348l-25.994,151.32c-29.088,-8.664 -57.867,-14.853 -86.336,-18.567c-28.469,-3.713 -57.557,-5.57 -87.264,-5.57c-8.664,0 -19.34,0.31 -32.028,0.929c-12.687,0.618 -27.076,1.856 -43.168,3.713l0,35.277c34.04,0 69.007,1.702 104.903,5.106c35.896,3.404 68.543,11.449 97.94,24.137c29.398,12.687 53.535,31.563 72.411,56.629c18.876,25.065 28.314,59.259 28.314,102.581c0,30.326 -3.404,57.403 -10.211,81.23c-6.808,23.828 -17.33,42.859 -31.564,57.093c-14.854,14.235 -30.171,25.684 -45.953,34.349c-15.782,8.665 -36.36,14.853 -61.735,18.567c-19.804,3.094 -41.002,5.415 -63.591,6.962c-22.59,1.548 -46.881,2.321 -72.875,2.321c-90.978,0 -174.219,-10.83 -249.724,-32.492l27.85,-157.818c31.564,9.284 64.056,16.401 97.476,21.352c33.42,4.951 68.388,7.427 104.903,7.427c16.71,0 32.646,-0.31 47.809,-0.929c15.163,-0.618 29.862,-1.856 44.097,-3.713l0,-35.277c-59.414,0 -109.081,-3.868 -148.999,-11.604c-39.919,-7.736 -72.101,-19.65 -96.548,-35.741c-24.446,-16.092 -41.775,-37.134 -51.987,-63.128c-10.212,-25.993 -15.318,-56.938 -15.318,-92.834c0,-71.792 24.137,-120.684 72.411,-146.678Z" style="fill-opacity:0.5;fill-rule:nonzero;"/><path d="M5001.77,1626.04l0,38.991c11.14,1.237 22.28,2.166 33.42,2.785c11.14,0.619 22.281,0.928 33.421,0.928c69.316,0 139.251,-11.14 209.805,-33.42l25.994,163.388c-83.551,22.28 -165.864,33.42 -246.939,33.42c-103.975,0 -179.17,-24.291 -225.588,-72.875c-46.417,-48.583 -69.625,-122.695 -69.625,-222.337c0,-99.643 23.363,-173.755 70.09,-222.338c46.726,-48.584 121.767,-72.875 225.123,-72.875c51.987,0 95.309,3.249 129.967,9.747c34.659,6.499 62.664,17.329 84.015,32.492c21.352,15.163 36.515,35.587 45.489,61.271c8.974,25.684 13.461,58.021 13.461,97.012c0,32.182 -5.415,59.878 -16.246,83.086c-10.83,23.209 -28.933,42.24 -54.308,57.093c-25.375,14.854 -59.104,25.839 -101.189,32.956c-42.085,7.118 -94.382,10.676 -156.89,10.676Zm0,-174.528l0,45.489l45.489,0c27.231,0 46.881,-2.785 58.95,-8.355c12.068,-5.57 18.102,-18.567 18.102,-38.991l0,-45.488l-45.489,0c-27.231,0 -46.881,2.785 -58.949,8.355c-12.069,5.57 -18.103,18.567 -18.103,38.99Z" style="fill-opacity:0.5;fill-rule:nonzero;"/><path d="M2363.46,848.987l-144.822,0l0,168.03l-222.802,0l0,-696.257l350.914,0c159.674,0 239.512,85.717 239.512,257.151c0,37.753 -3.714,73.03 -11.14,105.831c-7.427,32.802 -19.96,61.425 -37.598,85.872c-17.639,24.446 -40.538,43.787 -68.697,58.021c-28.16,14.235 -63.282,21.352 -105.367,21.352Zm-93.763,-349.985l-51.059,0l0,171.743l51.059,0c27.232,0 46.881,-2.785 58.95,-8.355c12.068,-5.57 18.103,-18.567 18.103,-38.99l0,-77.981c0,-19.804 -6.035,-32.492 -18.103,-38.062c-12.069,-5.57 -31.718,-8.355 -58.95,-8.355Z" style="fill:#0064ff;fill-rule:nonzero;"/><path d="M2653.1,292.91l222.803,-16.71l0,581.142c11.759,2.476 22.28,4.332 31.563,5.57c9.284,1.238 17.02,2.166 23.209,2.785l-10.212,163.388c-94.691,0 -157.509,-5.57 -188.453,-16.71c-25.994,-9.283 -45.644,-21.352 -58.95,-36.205c-13.306,-14.854 -19.96,-36.205 -19.96,-64.056l0,-619.204Z" style="fill:#0064ff;fill-rule:nonzero;"/><path d="M3261.16,443.302c178.241,0 267.362,61.27 267.362,183.811l0,389.904l-111.401,0l-63.127,-63.127c-11.14,12.378 -24.292,23.518 -39.455,33.42c-15.163,9.902 -31.409,18.257 -48.738,25.065c-17.329,6.808 -34.967,12.069 -52.915,15.782c-17.948,3.713 -35.277,5.57 -51.987,5.57c-31.564,0 -59.878,-3.249 -84.944,-9.747c-25.065,-6.499 -46.262,-16.865 -63.591,-31.1c-17.329,-14.234 -30.635,-33.111 -39.919,-56.629c-9.283,-23.518 -13.925,-52.296 -13.925,-86.336c0,-133.681 100.88,-200.521 302.64,-200.521l44.56,0l0,-39.919c-11.759,-0.619 -22.435,-1.238 -32.028,-1.857c-9.593,-0.619 -18.412,-0.928 -26.458,-0.928c-83.55,0 -155.652,10.212 -216.303,30.635l-26.922,-159.675c74.267,-22.899 159.984,-34.348 257.151,-34.348Zm-77.981,382.477l0,45.488l46.417,0c32.182,0 53.225,-3.713 63.127,-11.14c8.665,-8.045 12.997,-17.638 12.997,-28.778l0,-52.916l-45.489,0c-26.612,0 -46.107,2.785 -58.485,8.355c-12.378,5.57 -18.567,18.567 -18.567,38.991Z" style="fill:#0064ff;fill-rule:nonzero;"/><path d="M3651.07,603.905l-55.7,0l0,-143.893l55.7,0l0,-89.121l222.802,-55.701l0,144.822l77.053,0l0,143.893l-77.053,0l0,253.437c9.284,1.857 19.495,3.559 30.636,5.106c11.14,1.547 22.899,2.63 35.277,3.249l-10.212,163.388c-101.499,0 -167.721,-5.57 -198.665,-16.71c-25.994,-9.283 -45.799,-21.197 -59.414,-35.741c-13.616,-14.544 -20.424,-36.051 -20.424,-64.52l0,-308.209Z" style="fill:#0064ff;fill-rule:nonzero;"/><path d="M4220.14,959.46l-116.971,0l-124.398,-499.448l222.802,0l61.271,362.053l11.14,0l61.27,-362.053l222.802,0l-139.251,557.005c-9.902,36.515 -21.197,66.531 -33.884,90.049c-12.688,23.518 -27.387,42.24 -44.097,56.165c-16.71,13.925 -36.05,23.673 -58.021,29.243c-21.971,5.57 -47.5,8.355 -76.588,8.355l-216.304,0l0,-144.822l104.903,-20.423c53.843,-12.378 88.811,-25.684 104.902,-39.919c4.333,-3.713 8.355,-8.046 12.069,-12.997c3.713,-4.951 7.117,-10.521 10.211,-16.71l-1.856,-6.498Z" style="fill:#0064ff;fill-rule:nonzero;"/><path d="M2809.09,1622.39l-144.821,0l0,168.03l-222.802,0l0,-696.256l350.913,0c159.675,0 239.513,85.717 239.513,257.15c0,37.753 -3.714,73.03 -11.141,105.831c-7.426,32.802 -19.959,61.426 -37.597,85.872c-17.639,24.446 -40.538,43.787 -68.698,58.021c-28.159,14.235 -63.282,21.352 -105.367,21.352Zm-93.762,-349.985l-51.059,0l0,171.744l51.059,0c27.231,0 46.881,-2.785 58.95,-8.356c12.068,-5.57 18.102,-18.566 18.102,-38.99l0,-77.981c0,-19.804 -6.034,-32.492 -18.102,-38.062c-12.069,-5.57 -31.719,-8.355 -58.95,-8.355Z" style="fill:#fe6d09;fill-rule:nonzero;"/><path d="M3087.59,1233.42l222.802,0l0,411.255l34.349,0c27.231,0 46.881,-2.785 58.95,-8.355c12.068,-5.57 18.102,-18.566 18.102,-38.99l0,-363.91l222.802,0l0,557.005l-111.401,0l-64.984,-63.127c-44.56,53.225 -107.997,79.837 -190.31,79.837c-66.222,0 -114.495,-14.08 -144.821,-42.239c-30.326,-28.16 -45.489,-75.351 -45.489,-141.572l0,-389.904Z" style="fill:#fe6d09;fill-rule:nonzero;"/><path d="M3756,1790.42l0,-557.005l111.401,0l61.271,62.199c44.56,-40.847 99.642,-67.15 165.245,-78.909l12.997,210.733c-8.665,0 -19.186,1.238 -31.564,3.714c-12.378,2.475 -24.911,5.57 -37.598,9.283c-12.687,3.714 -24.291,8.201 -34.813,13.461c-10.521,5.261 -18.567,11.295 -24.137,18.103l0,318.421l-222.802,0Z" style="fill:#fe6d09;fill-rule:nonzero;"/><path d="M4227.6,1255.7c47.655,-25.993 112.948,-38.99 195.88,-38.99c83.551,0 159.985,11.449 229.301,34.348l-25.994,151.32c-29.088,-8.664 -57.867,-14.853 -86.336,-18.567c-28.469,-3.713 -57.557,-5.57 -87.264,-5.57c-8.664,0 -19.34,0.31 -32.028,0.929c-12.687,0.618 -27.076,1.856 -43.168,3.713l0,35.277c34.04,0 69.007,1.702 104.903,5.106c35.896,3.404 68.543,11.449 97.94,24.137c29.398,12.687 53.535,31.563 72.411,56.629c18.876,25.065 28.314,59.259 28.314,102.581c0,30.326 -3.404,57.403 -10.211,81.23c-6.808,23.828 -17.33,42.859 -31.564,57.093c-14.854,14.235 -30.171,25.684 -45.953,34.349c-15.782,8.665 -36.36,14.853 -61.735,18.567c-19.804,3.094 -41.002,5.415 -63.591,6.962c-22.59,1.548 -46.881,2.321 -72.875,2.321c-90.978,0 -174.219,-10.83 -249.724,-32.492l27.85,-157.818c31.564,9.284 64.056,16.401 97.476,21.352c33.42,4.951 68.388,7.427 104.903,7.427c16.71,0 32.646,-0.31 47.809,-0.929c15.163,-0.618 29.862,-1.856 44.097,-3.713l0,-35.277c-59.414,0 -109.081,-3.868 -148.999,-11.604c-39.919,-7.736 -72.101,-19.65 -96.548,-35.741c-24.446,-16.092 -41.775,-37.134 -51.987,-63.128c-10.212,-25.993 -15.318,-56.938 -15.318,-92.834c0,-71.792 24.137,-120.684 72.411,-146.678Z" style="fill:#fe6d09;fill-rule:nonzero;"/><path d="M4976.77,1601.04l0,38.991c11.14,1.237 22.28,2.166 33.42,2.785c11.14,0.619 22.281,0.928 33.421,0.928c69.316,0 139.251,-11.14 209.805,-33.42l25.994,163.388c-83.551,22.28 -165.864,33.42 -246.939,33.42c-103.975,0 -179.17,-24.291 -225.588,-72.875c-46.417,-48.583 -69.625,-122.695 -69.625,-222.337c0,-99.643 23.363,-173.755 70.09,-222.338c46.726,-48.584 121.767,-72.875 225.123,-72.875c51.987,0 95.309,3.249 129.967,9.747c34.659,6.499 62.664,17.329 84.015,32.492c21.352,15.163 36.515,35.587 45.489,61.271c8.974,25.684 13.461,58.021 13.461,97.012c0,32.182 -5.415,59.878 -16.246,83.086c-10.83,23.209 -28.933,42.24 -54.308,57.093c-25.375,14.854 -59.104,25.839 -101.189,32.956c-42.085,7.118 -94.382,10.676 -156.89,10.676Zm0,-174.528l0,45.489l45.489,0c27.231,0 46.881,-2.785 58.95,-8.355c12.068,-5.57 18.102,-18.567 18.102,-38.991l0,-45.488l-45.489,0c-27.231,0 -46.881,2.785 -58.949,8.355c-12.069,5.57 -18.103,18.567 -18.103,38.99Z" style="fill:#fe6d09;fill-rule:nonzero;"/></g></svg>