<?xml version="1.0" encoding="UTF-8" standalone="no"?><!DOCTYPE svg PUBLIC "-//W3C//DTD SVG 1.1//EN" "http://www.w3.org/Graphics/SVG/1.1/DTD/svg11.dtd"><svg width="100%" height="100%" viewBox="0 0 2084 2084" version="1.1" xmlns="http://www.w3.org/2000/svg" xmlns:xlink="http://www.w3.org/1999/xlink" xml:space="preserve" xmlns:serif="http://www.serif.com/" style="fill-rule:evenodd;clip-rule:evenodd;stroke-linecap:round;stroke-linejoin:round;stroke-miterlimit:5;"><g id="Ebene1"><path d="M1862.71,478.448l-232.769,0" style="fill:none;"/><path d="M174.704,752.807l1670.47,95.282l-2.316,-116.931l-19.615,-216.664l-34.922,-36.046l-1192.1,0l129.773,0l-422.18,0c-71.257,0 -129.109,57.851 -129.109,129.108l0,145.251Z" style="fill:#33281d;"/><circle cx="1781.05" cy="604.981" r="126.533" style="fill:#33281d;"/><path d="M1781.05,478.448c69.835,0 126.651,56.697 126.532,126.533c-0.664,389.849 24.691,294.311 -139.195,294.311c-69.835,0 -113.87,-224.476 -113.87,-294.311c0,-69.836 56.697,-126.533 126.533,-126.533Z" style="fill:#33281d;"/><path d="M174.704,881.326l0,1032.87c0,71.257 57.852,129.108 129.109,129.108l1474.66,0c71.257,0 129.108,-57.851 129.108,-129.108l0,-1053.93c0,-71.257 -57.851,-129.109 -129.108,-129.109l-550.373,0.457" style="fill:#66503a;"/><path d="M1036.26,731.767l-732.451,0.6c-71.257,0 -129.109,-57.851 -129.109,-129.108l0,286.704l194.038,33.966l950.954,-191.562l-283.432,-0.6Z" style="fill:#66503a;"/><path d="M311.519,603.259l652.531,0" style="fill:none;stroke:#000;stroke-opacity:0.2;stroke-width:20.83px;"/><path d="M1816.5,619.075l46.209,0c8.729,0 15.816,-7.087 15.816,-15.816c0,-8.73 -7.087,-15.817 -15.816,-15.817l-35.839,0" style="fill-opacity:0.2;"/><path d="M1826.87,587.442l-542.754,0c-8.73,0 -15.817,7.087 -15.817,15.817c0,8.729 7.087,15.816 15.817,15.816l532.384,0" style="fill-opacity:0.2;"/><path d="M311.519,1786.49l0,-968.1" style="fill:none;stroke:#33281d;stroke-width:20.83px;"/><path d="M311.519,1944.43l0,-73.084" style="fill:none;stroke:#33281d;stroke-width:20.83px;"/><g><path d="M749.399,400.474l152.924,-179.663l773.9,353.324l14.352,28.111l-417.716,1.013l-376.833,-110.043l-146.627,-92.742Z" style="fill:#0064ff;"/><path d="M1228.58,414.632c93.7,113.056 56.539,193.503 29.528,255.128c-22.87,52.177 -112.887,129.174 -112.887,129.174c55.34,38.287 -231.574,98.169 -120.592,-44.167c18.215,-23.361 21.861,-71.788 -0.014,-91.764c-45.548,-41.593 -90.701,-81.011 -102.856,-145.262" style="fill:#0064ff;"/><path d="M1145.71,798.512c46.173,30.971 98.682,70.303 142.944,116.207c-46.95,-2.967 -70.126,15.157 -59.282,63.462c-44.654,-14.855 -65.272,3.625 -63.354,53.358c-27.3,-40.566 -52.098,-37.513 -74.275,11.253c-26.344,-48.9 -53.729,-44.781 -82.071,8.181c-19.887,-61.78 -49.623,-48.888 -83.505,2.797c-21.552,-83.332 -38.52,-189.454 98.45,-298.989c29.065,32.222 67.516,49.787 121.093,43.731Z" style="fill:#fe6d09;"/><path d="M469.444,603.259c37.529,-37.679 108.723,-85.089 185.69,-80.847c21.915,1.207 60.496,-44.711 68.731,-57.333l153.195,65.972c-25.079,9.01 -47.426,24.519 -65.435,42.661c-7.27,7.324 -17.18,17.843 -27.651,29.547l0,0l-314.53,0Z" style="fill:#0064ff;"/><path d="M783.974,603.259l-314.53,0c37.529,-37.679 108.723,-85.089 185.69,-80.847c35.233,35.948 79.515,61.34 128.84,80.847Z" style="fill:#fe6d09;"/><path d="M469.444,603.259c37.529,-37.679 108.723,-85.089 185.69,-80.847c21.915,1.207 60.496,-44.711 68.731,-57.333l153.195,65.972c-25.079,9.01 -47.426,24.519 -65.435,42.661c-7.27,7.324 -17.18,17.843 -27.651,29.547l0,0l-314.53,0Z" style="fill-opacity:0.2;"/><path d="M1272.86,603.259l-349.761,-86.377c1.839,9.721 3.926,20.02 7.167,28.704c-45.433,-14.341 -93.778,-14.056 -137.655,-35.877c-53.767,-26.739 -151.157,-91.956 -174.796,-153.33c58.679,11.58 116.067,18.752 159.004,26.667" style="fill:#0064ff;"/><path d="M877.06,289.454c-30.937,-160.522 -116.339,-171.255 -201.507,-180.407c4.976,-6.29 11.71,-16.636 16.738,-21.605c53.32,-52.693 129.746,-55.834 207.057,-36.611c80.361,19.981 192.753,170.393 271.773,156.556c234.493,-41.061 451.593,211.607 520.108,395.872" style="fill:#0064ff;"/><path d="M989.706,295.234c15.026,12.9 16.701,35.634 3.738,50.735c-12.964,15.101 -35.689,16.888 -50.716,3.988c-15.026,-12.9 -16.701,-35.633 -3.738,-50.734c12.964,-15.101 35.689,-16.889 50.716,-3.989Z"/><circle cx="956.727" cy="306.056" r="9.49" style="fill:#fff;"/><path d="M1282.94,603.259c10.519,-56.623 12.06,-108.489 -54.358,-188.627c46.31,28.038 85.619,70.069 123.531,188.627" style="fill-opacity:0.2;"/><path d="M885.619,288.418c-35.28,-183.056 -150.312,-176.04 -243.632,-187.977c-105.108,-13.444 -172.286,-92.506 -253.996,-10.141c-34.299,34.574 -22.732,146.425 34.466,195.061c82.512,70.161 257.926,84.271 355.157,102.195" style="fill:#fe6d09;"/><path d="M619.858,361.291l157.756,26.265c0,0 -29.201,5.791 -46.576,2.898c-26.293,-4.377 -111.18,-29.163 -111.18,-29.163Z" style="fill-opacity:0.2;"/><path d="M469.255,127c10.447,8.969 11.64,24.74 2.663,35.198c-8.978,10.458 -24.749,11.667 -35.196,2.699c-10.447,-8.968 -11.64,-24.74 -2.662,-35.198c8.977,-10.458 24.748,-11.667 35.195,-2.699Z" style="fill-opacity:0.2;"/><path d="M494.943,186.88c10.447,8.969 11.64,24.74 2.663,35.198c-8.978,10.458 -24.749,11.667 -35.196,2.699c-10.447,-8.968 -11.64,-24.74 -2.662,-35.198c8.977,-10.458 24.748,-11.667 35.195,-2.699Z" style="fill-opacity:0.2;"/></g></g></svg>